{
    "asset" : {
        "generator" : "Khronos glTF Blender I/O v1.6.16",
        "version" : "2.0"
    },
    "scene" : 0,
    "scenes" : [
        {
            "name" : "Scene",
            "nodes" : [
                6
            ]
        }
    ],
    "nodes" : [
        {
            "mesh" : 0,
            "name" : "Bottle_low__0"
        },
        {
            "children" : [
                0
            ],
            "name" : "Bottle_low",
            "rotation" : [
                -0.7071068286895752,
                0,
                0,
                0.7071068286895752
            ],
            "scale" : [
                1.9474472999572754,
                1.9474472999572754,
                1.3400229215621948
            ],
            "translation" : [
                0,
                3.2590179443359375,
                0
            ]
        },
        {
            "mesh" : 1,
            "name" : "Cap_low__0"
        },
        {
            "children" : [
                2
            ],
            "name" : "Cap_low",
            "rotation" : [
                -0.7071068286895752,
                0,
                0,
                0.7071068286895752
            ],
            "scale" : [
                1.9474472999572754,
                1.9474472999572754,
                1.3400229215621948
            ],
            "translation" : [
                0,
                3.2590179443359375,
                0
            ]
        },
        {
            "children" : [
                1,
                3
            ],
            "name" : "RootNode"
        },
        {
            "children" : [
                4
            ],
            "name" : "bottle_low.FBX",
            "rotation" : [
                0.7071068286895752,
                0,
                0,
                0.7071068286895752
            ]
        },
        {
            "children" : [
                5
            ],
            "name" : "Sketchfab_model",
            "rotation" : [
                -0.7071068286895752,
                0,
                0,
                0.7071068286895752
            ]
        }
    ],
    "materials" : [
        {
            "doubleSided" : true,
            "name" : "Scene_-_Root",
            "normalTexture" : {
                "index" : 0,
                "scale" : 0.7578125
            },
            "pbrMetallicRoughness" : {
                "baseColorFactor" : [
                    0.8954954743385315,
                    0.8954954743385315,
                    0.8954954743385315,
                    1
                ],
                "baseColorTexture" : {
                    "index" : 1
                },
                "metallicRoughnessTexture" : {
                    "index" : 2
                }
            }
        }
    ],
    "meshes" : [
        {
            "name" : "Bottle_low__0",
            "primitives" : [
                {
                    "attributes" : {
                        "POSITION" : 0,
                        "NORMAL" : 1,
                        "TEXCOORD_0" : 2
                    },
                    "indices" : 3,
                    "material" : 0
                }
            ]
        },
        {
            "name" : "Cap_low__0",
            "primitives" : [
                {
                    "attributes" : {
                        "POSITION" : 4,
                        "NORMAL" : 5,
                        "TEXCOORD_0" : 6
                    },
                    "indices" : 7,
                    "material" : 0
                }
            ]
        }
    ],
    "textures" : [
        {
            "sampler" : 0,
            "source" : 0
        },
        {
            "sampler" : 0,
            "source" : 1
        },
        {
            "sampler" : 0,
            "source" : 2
        }
    ],
    "images" : [
        {
            "bufferView" : 4,
            "mimeType" : "image/jpeg",
            "name" : "Scene_-_Root_normal"
        },
        {
            "bufferView" : 5,
            "mimeType" : "image/jpeg",
            "name" : "Scene_-_Root_baseColor"
        },
        {
            "bufferView" : 6,
            "mimeType" : "image/png",
            "name" : "Scene_-_Root_metallicRoughness"
        }
    ],
    "accessors" : [
        {
            "bufferView" : 0,
            "componentType" : 5126,
            "count" : 101,
            "max" : [
                10.447582244873047,
                9.936241149902344,
                108.84815216064453
            ],
            "min" : [
                -10.447582244873047,
                -9.936241149902344,
                0
            ],
            "type" : "VEC3"
        },
        {
            "bufferView" : 1,
            "componentType" : 5126,
            "count" : 101,
            "type" : "VEC3"
        },
        {
            "bufferView" : 2,
            "componentType" : 5126,
            "count" : 101,
            "type" : "VEC2"
        },
        {
            "bufferView" : 3,
            "componentType" : 5123,
            "count" : 444,
            "type" : "SCALAR"
        },
        {
            "bufferView" : 7,
            "componentType" : 5126,
            "count" : 77,
            "max" : [
                3.776083469390869,
                3.5912740230560303,
                112.37806701660156
            ],
            "min" : [
                -3.776082992553711,
                -3.5912675857543945,
                108.84815216064453
            ],
            "type" : "VEC3"
        },
        {
            "bufferView" : 8,
            "componentType" : 5126,
            "count" : 77,
            "type" : "VEC3"
        },
        {
            "bufferView" : 9,
            "componentType" : 5126,
            "count" : 77,
            "type" : "VEC2"
        },
        {
            "bufferView" : 10,
            "componentType" : 5123,
            "count" : 210,
            "type" : "SCALAR"
        }
    ],
    "bufferViews" : [
        {
            "buffer" : 0,
            "byteLength" : 1212,
            "byteOffset" : 0
        },
        {
            "buffer" : 0,
            "byteLength" : 1212,
            "byteOffset" : 1212
        },
        {
            "buffer" : 0,
            "byteLength" : 808,
            "byteOffset" : 2424
        },
        {
            "buffer" : 0,
            "byteLength" : 888,
            "byteOffset" : 3232
        },
        {
            "buffer" : 0,
            "byteLength" : 383465,
            "byteOffset" : 4120
        },
        {
            "buffer" : 0,
            "byteLength" : 114228,
            "byteOffset" : 387588
        },
        {
            "buffer" : 0,
            "byteLength" : 555525,
            "byteOffset" : 501816
        },
        {
            "buffer" : 0,
            "byteLength" : 924,
            "byteOffset" : 1057344
        },
        {
            "buffer" : 0,
            "byteLength" : 924,
            "byteOffset" : 1058268
        },
        {
            "buffer" : 0,
            "byteLength" : 616,
            "byteOffset" : 1059192
        },
        {
            "buffer" : 0,
            "byteLength" : 420,
            "byteOffset" : 1059808
        }
    ],
    "samplers" : [
        {
            "magFilter" : 9729,
            "minFilter" : 9987
        }
    ],
    "buffers" : [
        {
            "byteLength" : 1060228,
            "uri" : "data:application/octet-stream;base64,"
        }
    ]
}
