{
    "asset" : {
        "generator" : "Khronos glTF Blender I/O v1.6.16",
        "version" : "2.0"
    },
    "scene" : 0,
    "scenes" : [
        {
            "name" : "Scene",
            "nodes" : [
                18
            ]
        }
    ],
    "nodes" : [
        {
            "mesh" : 0,
            "name" : "Bulki_0"
        },
        {
            "children" : [
                0
            ],
            "name" : "Bulki",
            "scale" : [
                1.1147099733352661,
                1.1147099733352661,
                1.1147099733352661
            ],
            "translation" : [
                0,
                0,
                0.009150000289082527
            ]
        },
        {
            "name" : "Lamp.001"
        },
        {
            "children" : [
                2
            ],
            "name" : "Lamp",
            "rotation" : [
                0.16907447576522827,
                0.27217063307762146,
                0.7558797597885132,
                0.5709490180015564
            ],
            "scale" : [
                0.9999975562095642,
                0.9999958276748657,
                0.9999960660934448
            ],
            "translation" : [
                4.076250076293945,
                1.0054500102996826,
                5.903860092163086
            ]
        },
        {
            "mesh" : 1,
            "name" : "Mball.001_0"
        },
        {
            "children" : [
                4
            ],
            "name" : "Mball.001",
            "scale" : [
                0.0038799999747425318,
                0.0038799999747425318,
                0.0038799999747425318
            ],
            "translation" : [
                0.009309999644756317,
                0.00571999978274107,
                0.02769000083208084
            ]
        },
        {
            "mesh" : 2,
            "name" : "Pena_0"
        },
        {
            "children" : [
                6
            ],
            "name" : "Pena",
            "scale" : [
                1,
                1.0475599765777588,
                1
            ],
            "translation" : [
                0,
                0,
                0.04941999912261963
            ]
        },
        {
            "mesh" : 3,
            "name" : "Pena_stakana_0"
        },
        {
            "children" : [
                8
            ],
            "name" : "Pena_stakana",
            "translation" : [
                0,
                0,
                0.05000000074505806
            ]
        },
        {
            "mesh" : 4,
            "name" : "Stakan_0"
        },
        {
            "children" : [
                10
            ],
            "name" : "Stakan",
            "translation" : [
                0,
                0,
                0.05000000074505806
            ]
        },
        {
            "mesh" : 5,
            "name" : "Vodichka_0"
        },
        {
            "children" : [
                12
            ],
            "name" : "Vodichka",
            "translation" : [
                0,
                0,
                0.05000000074505806
            ]
        },
        {
            "mesh" : 6,
            "name" : "Vodichka.001_0"
        },
        {
            "children" : [
                14
            ],
            "name" : "Vodichka.001",
            "translation" : [
                0,
                0,
                0.05000000074505806
            ]
        },
        {
            "children" : [
                1,
                3,
                5,
                7,
                9,
                11,
                13,
                15
            ],
            "name" : "Root"
        },
        {
            "children" : [
                16
            ],
            "name" : "RootNode (model correction matrix)"
        },
        {
            "children" : [
                17
            ],
            "name" : "RootNode (gltf orientation matrix)",
            "rotation" : [
                -0.7071068286895752,
                0,
                0,
                0.7071068286895752
            ],
            "scale" : [
                30,
                30,
                30
            ]
        }
    ],
    "materials" : [
        {
            "alphaMode" : "BLEND",
            "doubleSided" : true,
            "name" : "Material.004",
            "pbrMetallicRoughness" : {
                "baseColorFactor" : [
                    0.9117890000343323,
                    0.6798788905143738,
                    0.0013153470354154706,
                    0.41025152802467346
                ],
                "roughnessFactor" : 0.4000000059604645
            }
        },
        {
            "doubleSided" : true,
            "emissiveFactor" : [
                0.030000006780028343,
                0.030000006780028343,
                0.030000006780028343
            ],
            "emissiveTexture" : {
                "index" : 0
            },
            "name" : "879620793_w640_h640_0003",
            "pbrMetallicRoughness" : {
                "roughnessFactor" : 0.6000000238418579
            }
        },
        {
            "doubleSided" : true,
            "name" : "Material.005",
            "pbrMetallicRoughness" : {
                "metallicFactor" : 0,
                "roughnessFactor" : 0
            }
        },
        {
            "alphaMode" : "BLEND",
            "doubleSided" : true,
            "name" : "Material.006",
            "pbrMetallicRoughness" : {
                "baseColorFactor" : [
                    1,
                    1,
                    1,
                    0.550495445728302
                ],
                "baseColorTexture" : {
                    "index" : 1
                },
                "metallicFactor" : 0,
                "roughnessFactor" : 0
            }
        },
        {
            "alphaMode" : "BLEND",
            "doubleSided" : true,
            "name" : "Material.002",
            "pbrMetallicRoughness" : {
                "baseColorFactor" : [
                    1,
                    1,
                    1,
                    0.032202742993831635
                ],
                "roughnessFactor" : 0
            }
        }
    ],
    "meshes" : [
        {
            "name" : "Bulki_0",
            "primitives" : [
                {
                    "attributes" : {
                        "POSITION" : 0,
                        "NORMAL" : 1
                    },
                    "indices" : 2,
                    "material" : 0
                }
            ]
        },
        {
            "name" : "Mball.001_0",
            "primitives" : [
                {
                    "attributes" : {
                        "POSITION" : 3,
                        "NORMAL" : 4,
                        "TEXCOORD_0" : 5
                    },
                    "indices" : 6,
                    "material" : 1
                }
            ]
        },
        {
            "name" : "Pena_0",
            "primitives" : [
                {
                    "attributes" : {
                        "POSITION" : 7,
                        "NORMAL" : 8
                    },
                    "indices" : 9,
                    "material" : 2
                }
            ]
        },
        {
            "name" : "Pena_stakana_0",
            "primitives" : [
                {
                    "attributes" : {
                        "POSITION" : 10,
                        "NORMAL" : 11,
                        "TEXCOORD_0" : 12
                    },
                    "indices" : 13,
                    "material" : 3
                }
            ]
        },
        {
            "name" : "Stakan_0",
            "primitives" : [
                {
                    "attributes" : {
                        "POSITION" : 14,
                        "NORMAL" : 15
                    },
                    "indices" : 16,
                    "material" : 4
                }
            ]
        },
        {
            "name" : "Vodichka_0",
            "primitives" : [
                {
                    "attributes" : {
                        "POSITION" : 17,
                        "NORMAL" : 18
                    },
                    "indices" : 19,
                    "material" : 0
                }
            ]
        },
        {
            "name" : "Vodichka.001_0",
            "primitives" : [
                {
                    "attributes" : {
                        "POSITION" : 20,
                        "NORMAL" : 21
                    },
                    "indices" : 22,
                    "material" : 0
                }
            ]
        }
    ],
    "textures" : [
        {
            "sampler" : 0,
            "source" : 0
        },
        {
            "sampler" : 0,
            "source" : 1
        }
    ],
    "images" : [
        {
            "bufferView" : 7,
            "mimeType" : "image/jpeg",
            "name" : "879620793_w640_h640_0003_emissive"
        },
        {
            "bufferView" : 15,
            "mimeType" : "image/png",
            "name" : "Material.006_baseColor"
        }
    ],
    "accessors" : [
        {
            "bufferView" : 0,
            "componentType" : 5126,
            "count" : 2241,
            "max" : [
                0.015429999679327011,
                0.015429999679327011,
                0.0010900000343099236
            ],
            "min" : [
                -0.015429999679327011,
                -0.015429999679327011,
                -0.0012799999676644802
            ],
            "type" : "VEC3"
        },
        {
            "bufferView" : 1,
            "componentType" : 5126,
            "count" : 2241,
            "type" : "VEC3"
        },
        {
            "bufferView" : 2,
            "componentType" : 5123,
            "count" : 13056,
            "type" : "SCALAR"
        },
        {
            "bufferView" : 3,
            "componentType" : 5126,
            "count" : 24030,
            "max" : [
                3.2814199924468994,
                4.256830215454102,
                11.780670166015625
            ],
            "min" : [
                -8.112030029296875,
                -7.149809837341309,
                -5.106929779052734
            ],
            "type" : "VEC3"
        },
        {
            "bufferView" : 4,
            "componentType" : 5126,
            "count" : 24030,
            "type" : "VEC3"
        },
        {
            "bufferView" : 5,
            "componentType" : 5126,
            "count" : 24030,
            "type" : "VEC2"
        },
        {
            "bufferView" : 6,
            "componentType" : 5123,
            "count" : 128652,
            "type" : "SCALAR"
        },
        {
            "bufferView" : 8,
            "componentType" : 5126,
            "count" : 8194,
            "max" : [
                0.021889999508857727,
                0.021889999508857727,
                0.02459999918937683
            ],
            "min" : [
                -0.021889999508857727,
                -0.021889999508857727,
                0.012959999963641167
            ],
            "type" : "VEC3"
        },
        {
            "bufferView" : 9,
            "componentType" : 5126,
            "count" : 8194,
            "type" : "VEC3"
        },
        {
            "bufferView" : 10,
            "componentType" : 5123,
            "count" : 47616,
            "type" : "SCALAR"
        },
        {
            "bufferView" : 11,
            "componentType" : 5126,
            "count" : 1677,
            "max" : [
                0.02150999940931797,
                0.02150999940931797,
                0.048009999096393585
            ],
            "min" : [
                -0.02150999940931797,
                -0.02150999940931797,
                0.014089999720454216
            ],
            "type" : "VEC3"
        },
        {
            "bufferView" : 12,
            "componentType" : 5126,
            "count" : 1677,
            "type" : "VEC3"
        },
        {
            "bufferView" : 13,
            "componentType" : 5126,
            "count" : 1677,
            "type" : "VEC2"
        },
        {
            "bufferView" : 14,
            "componentType" : 5123,
            "count" : 9216,
            "type" : "SCALAR"
        },
        {
            "bufferView" : 16,
            "componentType" : 5126,
            "count" : 18993,
            "max" : [
                0.023180000483989716,
                0.023180000483989716,
                0.049869999289512634
            ],
            "min" : [
                -0.023180000483989716,
                -0.023180000483989716,
                -0.05000000074505806
            ],
            "type" : "VEC3"
        },
        {
            "bufferView" : 17,
            "componentType" : 5126,
            "count" : 18993,
            "type" : "VEC3"
        },
        {
            "bufferView" : 18,
            "componentType" : 5123,
            "count" : 72192,
            "type" : "SCALAR"
        },
        {
            "bufferView" : 19,
            "componentType" : 5126,
            "count" : 9388,
            "max" : [
                0.022280000150203705,
                0.022280000150203705,
                0.014340000227093697
            ],
            "min" : [
                -0.022280000150203705,
                -0.022280000150203705,
                -0.0412600003182888
            ],
            "type" : "VEC3"
        },
        {
            "bufferView" : 20,
            "componentType" : 5126,
            "count" : 9388,
            "type" : "VEC3"
        },
        {
            "bufferView" : 21,
            "componentType" : 5123,
            "count" : 54768,
            "type" : "SCALAR"
        },
        {
            "bufferView" : 22,
            "componentType" : 5126,
            "count" : 2753,
            "max" : [
                0.018069999292492867,
                0.018069999292492867,
                -0.0412600003182888
            ],
            "min" : [
                -0.018069999292492867,
                -0.018069999292492867,
                -0.044210001826286316
            ],
            "type" : "VEC3"
        },
        {
            "bufferView" : 23,
            "componentType" : 5126,
            "count" : 2753,
            "type" : "VEC3"
        },
        {
            "bufferView" : 24,
            "componentType" : 5123,
            "count" : 16128,
            "type" : "SCALAR"
        }
    ],
    "bufferViews" : [
        {
            "buffer" : 0,
            "byteLength" : 26892,
            "byteOffset" : 0
        },
        {
            "buffer" : 0,
            "byteLength" : 26892,
            "byteOffset" : 26892
        },
        {
            "buffer" : 0,
            "byteLength" : 26112,
            "byteOffset" : 53784
        },
        {
            "buffer" : 0,
            "byteLength" : 288360,
            "byteOffset" : 79896
        },
        {
            "buffer" : 0,
            "byteLength" : 288360,
            "byteOffset" : 368256
        },
        {
            "buffer" : 0,
            "byteLength" : 192240,
            "byteOffset" : 656616
        },
        {
            "buffer" : 0,
            "byteLength" : 257304,
            "byteOffset" : 848856
        },
        {
            "buffer" : 0,
            "byteLength" : 563477,
            "byteOffset" : 1106160
        },
        {
            "buffer" : 0,
            "byteLength" : 98328,
            "byteOffset" : 1669640
        },
        {
            "buffer" : 0,
            "byteLength" : 98328,
            "byteOffset" : 1767968
        },
        {
            "buffer" : 0,
            "byteLength" : 95232,
            "byteOffset" : 1866296
        },
        {
            "buffer" : 0,
            "byteLength" : 20124,
            "byteOffset" : 1961528
        },
        {
            "buffer" : 0,
            "byteLength" : 20124,
            "byteOffset" : 1981652
        },
        {
            "buffer" : 0,
            "byteLength" : 13416,
            "byteOffset" : 2001776
        },
        {
            "buffer" : 0,
            "byteLength" : 18432,
            "byteOffset" : 2015192
        },
        {
            "buffer" : 0,
            "byteLength" : 37422,
            "byteOffset" : 2033624
        },
        {
            "buffer" : 0,
            "byteLength" : 227916,
            "byteOffset" : 2071048
        },
        {
            "buffer" : 0,
            "byteLength" : 227916,
            "byteOffset" : 2298964
        },
        {
            "buffer" : 0,
            "byteLength" : 144384,
            "byteOffset" : 2526880
        },
        {
            "buffer" : 0,
            "byteLength" : 112656,
            "byteOffset" : 2671264
        },
        {
            "buffer" : 0,
            "byteLength" : 112656,
            "byteOffset" : 2783920
        },
        {
            "buffer" : 0,
            "byteLength" : 109536,
            "byteOffset" : 2896576
        },
        {
            "buffer" : 0,
            "byteLength" : 33036,
            "byteOffset" : 3006112
        },
        {
            "buffer" : 0,
            "byteLength" : 33036,
            "byteOffset" : 3039148
        },
        {
            "buffer" : 0,
            "byteLength" : 32256,
            "byteOffset" : 3072184
        }
    ],
    "samplers" : [
        {
            "magFilter" : 9729,
            "minFilter" : 9987
        }
    ],
    "buffers" : [
        {
            "byteLength" : 3104440,
            "uri" : "data:application/octet-stream;base64,"
        }
    ]
}
