{
    "asset" : {
        "generator" : "Khronos glTF Blender I/O v1.1.46",
        "version" : "2.0"
    },
    "scene" : 0,
    "scenes" : [
        {
            "name" : "Scene",
            "nodes" : [
                0,
                1,
                8
            ]
        }
    ],
    "nodes" : [
        {
            "name" : "Light",
            "rotation" : [
                0.16907575726509094,
                0.7558803558349609,
                -0.27217137813568115,
                0.570947527885437
            ],
            "translation" : [
                4.076245307922363,
                5.903861999511719,
                -1.0054539442062378
            ]
        },
        {
            "name" : "Camera",
            "rotation" : [
                0.483536034822464,
                0.33687159419059753,
                -0.20870360732078552,
                0.7804827094078064
            ],
            "translation" : [
                7.358891487121582,
                4.958309173583984,
                6.925790786743164
            ]
        },
        {
            "name" : "Object_3"
        },
        {
            "mesh" : 0,
            "name" : "Object_4"
        },
        {
            "mesh" : 1,
            "name" : "Object_5"
        },
        {
            "mesh" : 2,
            "name" : "Object_6"
        },
        {
            "children" : [
                2,
                3,
                4,
                5
            ],
            "name" : "burger.obj.cleaner.materialmerger.gles"
        },
        {
            "children" : [
                6
            ],
            "name" : "RootNode (model correction matrix)"
        },
        {
            "children" : [
                7
            ],
            "name" : "RootNode (gltf orientation matrix)"
        }
    ],
    "materials" : [
        {
            "doubleSided" : true,
            "emissiveFactor" : [
                1,
                1,
                1
            ],
            "emissiveTexture" : {
                "index" : 0,
                "texCoord" : 0
            },
            "name" : "mesh",
            "pbrMetallicRoughness" : {}
        }
    ],
    "meshes" : [
        {
            "name" : "Mesh_1",
            "primitives" : [
                {
                    "attributes" : {
                        "POSITION" : 0,
                        "NORMAL" : 1,
                        "TEXCOORD_0" : 2
                    },
                    "indices" : 3,
                    "material" : 0
                }
            ]
        },
        {
            "name" : "Mesh_2",
            "primitives" : [
                {
                    "attributes" : {
                        "POSITION" : 4,
                        "NORMAL" : 5,
                        "TEXCOORD_0" : 6
                    },
                    "indices" : 7,
                    "material" : 0
                }
            ]
        },
        {
            "name" : "Mesh_3",
            "primitives" : [
                {
                    "attributes" : {
                        "POSITION" : 8,
                        "NORMAL" : 9,
                        "TEXCOORD_0" : 10
                    },
                    "indices" : 11,
                    "material" : 0
                }
            ]
        }
    ],
    "textures" : [
        {
            "source" : 0
        }
    ],
    "images" : [
        {
            "mimeType" : "image/png",
            "name" : "Image_0",
            "uri" : "Image_0.png"
        }
    ],
    "accessors" : [
        {
            "bufferView" : 0,
            "componentType" : 5126,
            "count" : 65730,
            "max" : [
                4.679243087768555,
                4.702455043792725,
                4.403831958770752
            ],
            "min" : [
                -4.6368279457092285,
                1.6159249544143677,
                -5.000449180603027
            ],
            "type" : "VEC3"
        },
        {
            "bufferView" : 1,
            "componentType" : 5126,
            "count" : 65730,
            "type" : "VEC3"
        },
        {
            "bufferView" : 2,
            "componentType" : 5126,
            "count" : 65730,
            "type" : "VEC2"
        },
        {
            "bufferView" : 3,
            "componentType" : 5125,
            "count" : 370224,
            "type" : "SCALAR"
        },
        {
            "bufferView" : 4,
            "componentType" : 5126,
            "count" : 65609,
            "max" : [
                4.741649150848389,
                4.702455043792725,
                4.403831958770752
            ],
            "min" : [
                -4.6605939865112305,
                1.6159249544143677,
                -5.027218818664551
            ],
            "type" : "VEC3"
        },
        {
            "bufferView" : 5,
            "componentType" : 5126,
            "count" : 65609,
            "type" : "VEC3"
        },
        {
            "bufferView" : 6,
            "componentType" : 5126,
            "count" : 65609,
            "type" : "VEC2"
        },
        {
            "bufferView" : 7,
            "componentType" : 5125,
            "count" : 353853,
            "type" : "SCALAR"
        },
        {
            "bufferView" : 8,
            "componentType" : 5126,
            "count" : 5641,
            "max" : [
                4.664975166320801,
                3.1025280952453613,
                4.10542106628418
            ],
            "min" : [
                -4.566502094268799,
                1.7070640325546265,
                -4.9935832023620605
            ],
            "type" : "VEC3"
        },
        {
            "bufferView" : 9,
            "componentType" : 5126,
            "count" : 5641,
            "type" : "VEC3"
        },
        {
            "bufferView" : 10,
            "componentType" : 5126,
            "count" : 5641,
            "type" : "VEC2"
        },
        {
            "bufferView" : 11,
            "componentType" : 5123,
            "count" : 8991,
            "type" : "SCALAR"
        }
    ],
    "bufferViews" : [
        {
            "buffer" : 0,
            "byteLength" : 788760,
            "byteOffset" : 0
        },
        {
            "buffer" : 0,
            "byteLength" : 788760,
            "byteOffset" : 788760
        },
        {
            "buffer" : 0,
            "byteLength" : 525840,
            "byteOffset" : 1577520
        },
        {
            "buffer" : 0,
            "byteLength" : 1480896,
            "byteOffset" : 2103360
        },
        {
            "buffer" : 0,
            "byteLength" : 787308,
            "byteOffset" : 3584256
        },
        {
            "buffer" : 0,
            "byteLength" : 787308,
            "byteOffset" : 4371564
        },
        {
            "buffer" : 0,
            "byteLength" : 524872,
            "byteOffset" : 5158872
        },
        {
            "buffer" : 0,
            "byteLength" : 1415412,
            "byteOffset" : 5683744
        },
        {
            "buffer" : 0,
            "byteLength" : 67692,
            "byteOffset" : 7099156
        },
        {
            "buffer" : 0,
            "byteLength" : 67692,
            "byteOffset" : 7166848
        },
        {
            "buffer" : 0,
            "byteLength" : 45128,
            "byteOffset" : 7234540
        },
        {
            "buffer" : 0,
            "byteLength" : 17982,
            "byteOffset" : 7279668
        }
    ],
    "buffers" : [
        {
            "byteLength" : 7297652,
            "uri" : "burgy.bin"
        }
    ]
}
