{
    "asset" : {
        "generator" : "Khronos glTF Blender I/O v1.1.46",
        "version" : "2.0"
    },
    "scene" : 0,
    "scenes" : [
        {
            "name" : "Scene",
            "nodes" : [
                0,
                1
            ]
        }
    ],
    "nodes" : [
        {
            "name" : "Light",
            "rotation" : [
                0.16907575726509094,
                0.7558803558349609,
                -0.27217137813568115,
                0.570947527885437
            ],
            "translation" : [
                4.076245307922363,
                5.903861999511719,
                -1.0054539442062378
            ]
        },
        {
            "mesh" : 0,
            "name" : "mesh",
            "rotation" : [
                -0.7071067690849304,
                0,
                0,
                0.7071067690849304
            ],
            "scale" : [
                40,
                40,
                40
            ],
            "translation" : [
                0,
                1.3399999141693115,
                0
            ]
        }
    ],
    "materials" : [
        {
            "doubleSided" : true,
            "emissiveFactor" : [
                0,
                0,
                0
            ],
            "name" : "mesh",
            "pbrMetallicRoughness" : {
                "baseColorTexture" : {
                    "index" : 0,
                    "texCoord" : 0
                },
                "metallicFactor" : 0,
                "roughnessFactor" : 0.6666666865348816
            }
        }
    ],
    "meshes" : [
        {
            "name" : "mesh",
            "primitives" : [
                {
                    "attributes" : {
                        "POSITION" : 0,
                        "NORMAL" : 1,
                        "TEXCOORD_0" : 2
                    },
                    "indices" : 3,
                    "material" : 0
                }
            ]
        }
    ],
    "textures" : [
        {
            "source" : 0
        }
    ],
    "images" : [
        {
            "mimeType" : "image/jpeg",
            "name" : "mesh",
            "uri" : "mesh.jpg"
        }
    ],
    "accessors" : [
        {
            "bufferView" : 0,
            "componentType" : 5126,
            "count" : 22782,
            "max" : [
                0.06252200156450272,
                0.07552900165319443,
                0.06369099766016006
            ],
            "min" : [
                -0.06888999789953232,
                -0.05808800086379051,
                -0.03365600109100342
            ],
            "type" : "VEC3"
        },
        {
            "bufferView" : 1,
            "componentType" : 5126,
            "count" : 22782,
            "type" : "VEC3"
        },
        {
            "bufferView" : 2,
            "componentType" : 5126,
            "count" : 22782,
            "type" : "VEC2"
        },
        {
            "bufferView" : 3,
            "componentType" : 5123,
            "count" : 120390,
            "type" : "SCALAR"
        }
    ],
    "bufferViews" : [
        {
            "buffer" : 0,
            "byteLength" : 273384,
            "byteOffset" : 0
        },
        {
            "buffer" : 0,
            "byteLength" : 273384,
            "byteOffset" : 273384
        },
        {
            "buffer" : 0,
            "byteLength" : 182256,
            "byteOffset" : 546768
        },
        {
            "buffer" : 0,
            "byteLength" : 240780,
            "byteOffset" : 729024
        }
    ],
    "buffers" : [
        {
            "byteLength" : 969804,
            "uri" : "cake2.bin"
        }
    ]
}
